<svg xmlns="http://www.w3.org/2000/svg" viewBox="0 0 800 600" fill="none">
  <rect width="800" height="600" fill="#0f0f23"/>
  <rect x="40" y="40" width="720" height="520" rx="20" fill="#13162d" stroke="#2a2d4a" stroke-width="2"/>
  <!-- Document/Resume icon -->
  <rect x="300" y="100" width="200" height="260" rx="8" fill="#1a1a3e" stroke="#3b82f6" stroke-width="2"/>
  <rect x="320" y="130" width="100" height="8" rx="4" fill="#3b82f6" opacity="0.7"/>
  <rect x="320" y="150" width="160" height="6" rx="3" fill="#64748b" opacity="0.5"/>
  <rect x="320" y="165" width="140" height="6" rx="3" fill="#64748b" opacity="0.4"/>
  <rect x="320" y="180" width="150" height="6" rx="3" fill="#64748b" opacity="0.3"/>
  <rect x="320" y="210" width="80" height="8" rx="4" fill="#3b82f6" opacity="0.7"/>
  <rect x="320" y="230" width="160" height="6" rx="3" fill="#64748b" opacity="0.5"/>
  <rect x="320" y="245" width="130" height="6" rx="3" fill="#64748b" opacity="0.4"/>
  <rect x="320" y="275" width="90" height="8" rx="4" fill="#3b82f6" opacity="0.7"/>
  <rect x="320" y="295" width="155" height="6" rx="3" fill="#64748b" opacity="0.5"/>
  <rect x="320" y="310" width="145" height="6" rx="3" fill="#64748b" opacity="0.4"/>
  <!-- AI Processing arrows -->
  <path d="M520 230 L580 230" stroke="#22d3ee" stroke-width="2" stroke-dasharray="5,5"/>
  <path d="M280 230 L220 230" stroke="#22d3ee" stroke-width="2" stroke-dasharray="5,5"/>
  <!-- Output cards -->
  <rect x="580" y="150" width="140" height="60" rx="8" fill="#1a1a3e" stroke="#22d3ee" stroke-width="1.5"/>
  <text x="650" y="175" text-anchor="middle" font-family="sans-serif" font-size="10" fill="#22d3ee">Cover Letter</text>
  <rect x="605" y="190" width="90" height="4" rx="2" fill="#64748b" opacity="0.4"/>
  <rect x="580" y="230" width="140" height="60" rx="8" fill="#1a1a3e" stroke="#a78bfa" stroke-width="1.5"/>
  <text x="650" y="255" text-anchor="middle" font-family="sans-serif" font-size="10" fill="#a78bfa">Tailored Resume</text>
  <rect x="605" y="270" width="90" height="4" rx="2" fill="#64748b" opacity="0.4"/>
  <rect x="580" y="310" width="140" height="60" rx="8" fill="#1a1a3e" stroke="#34d399" stroke-width="1.5"/>
  <text x="650" y="335" text-anchor="middle" font-family="sans-serif" font-size="10" fill="#34d399">Interview Prep</text>
  <rect x="605" y="350" width="90" height="4" rx="2" fill="#64748b" opacity="0.4"/>
  <!-- Left side - skill modes -->
  <rect x="80" y="150" width="140" height="40" rx="8" fill="#1a1a3e" stroke="#f59e0b" stroke-width="1.5"/>
  <text x="150" y="175" text-anchor="middle" font-family="sans-serif" font-size="10" fill="#f59e0b">14 Skill Modes</text>
  <rect x="80" y="210" width="140" height="40" rx="8" fill="#1a1a3e" stroke="#ec4899" stroke-width="1.5"/>
  <text x="150" y="235" text-anchor="middle" font-family="sans-serif" font-size="10" fill="#ec4899">Go Dashboard</text>
  <rect x="80" y="270" width="140" height="40" rx="8" fill="#1a1a3e" stroke="#6366f1" stroke-width="1.5"/>
  <text x="150" y="295" text-anchor="middle" font-family="sans-serif" font-size="10" fill="#6366f1">Batch Process</text>
  <!-- Bottom status bar -->
  <rect x="100" y="440" width="600" height="60" rx="10" fill="#1a1a3e" stroke="#3b3d5e" stroke-width="1"/>
  <circle cx="140" cy="470" r="8" fill="#34d399"/>
  <text x="160" y="474" font-family="monospace" font-size="11" fill="#94a3b8">Auto-Apply Active</text>
  <rect x="350" y="460" width="120" height="20" rx="4" fill="#3b82f6" opacity="0.3"/>
  <rect x="350" y="460" width="85" height="20" rx="4" fill="#3b82f6" opacity="0.7"/>
  <text x="580" y="474" font-family="monospace" font-size="11" fill="#94a3b8">42 jobs matched</text>
  <!-- Title -->
  <text x="400" y="555" text-anchor="middle" font-family="monospace" font-size="14" fill="#3b82f6" opacity="0.8">HIREFORGE</text>
</svg>
